# xmcd
#
# Track frame offsets:
#	150
#	15472
#	37556
#	56764
#	73542
#	89674
#	107816
#	123162
#	140863
#	158009
#
# Disc length: 2265 seconds
#
# Revision: 1
# Processed by: cddbd v1.5.2PL0 Copyright (c) Steve Scherf et al.
# Submitted via: audiograbber 1.83.01
#
DISCID=7f08d70a
DTITLE=Mike Archer - Shoulda Coulda Woulda
DYEAR=2012
DGENRE=Country
TTITLE0=Slow It Down With Me
TTITLE1=Shoulda Coulda Woulda
TTITLE2=The Best Of My Love
TTITLE3=Just Another Day
TTITLE4=Real Good Way
TTITLE5=The L. Word
TTITLE6=Little Red Dress
TTITLE7=She's Beautiful
TTITLE8=Sharp Dressed Man
TTITLE9=Tunderbird Night
EXTD=
EXTT0=
EXTT1=
EXTT2=
EXTT3=
EXTT4=
EXTT5=
EXTT6=
EXTT7=
EXTT8=
EXTT9=
PLAYORDER=
